# xmcd
#
# Track frame offsets: 
#        150
#        24092
#        42140
#        58567
#
# Disc length: 1095 seconds
#
# Revision: 3
# Processed by: cddbd v1.5.2PL0 Copyright (c) Steve Scherf et al.
# Submitted via: ExactAudioCopy v1.0b3
#
DISCID=23044504
DTITLE=手嶌　葵 - 明日への手紙
DYEAR=2016
DGENRE=JPop
TTITLE0=明日への手紙
TTITLE1=輝きの庭～I'm not alone～
TTITLE2=Can't Help Falling In LOve (Live)
TTITLE3=明日への手紙（instrumental）
EXTD=
EXTT0=
EXTT1=
EXTT2=
EXTT3=
PLAYORDER=
